<?xml version="1.0" encoding="UTF-8"?><svg id="Calque_1" xmlns="http://www.w3.org/2000/svg" xmlns:xlink="http://www.w3.org/1999/xlink" viewBox="0 0 385.292 350.674"><defs><filter id="drop-shadow-1" filterUnits="userSpaceOnUse"><feOffset dx="4" dy="3"/><feGaussianBlur result="blur" stdDeviation="2"/><feFlood flood-color="#000" flood-opacity=".59"/><feComposite in2="blur" operator="in"/><feComposite in="SourceGraphic"/></filter><filter id="drop-shadow-2" filterUnits="userSpaceOnUse"><feOffset dx="1" dy="1"/><feGaussianBlur result="blur-2" stdDeviation="0"/><feFlood flood-color="#000" flood-opacity=".97"/><feComposite in2="blur-2" operator="in"/><feComposite in="SourceGraphic"/></filter><filter id="drop-shadow-3" filterUnits="userSpaceOnUse"><feOffset dx="1" dy="1"/><feGaussianBlur result="blur-3" stdDeviation="0"/><feFlood flood-color="#000" flood-opacity=".97"/><feComposite in2="blur-3" operator="in"/><feComposite in="SourceGraphic"/></filter><filter id="drop-shadow-5" filterUnits="userSpaceOnUse"><feOffset dx="3" dy="0"/><feGaussianBlur result="blur-4" stdDeviation="0"/><feFlood flood-color="#000" flood-opacity=".75"/><feComposite in2="blur-4" operator="in"/><feComposite in="SourceGraphic"/></filter></defs><g filter="url(#drop-shadow-1)"><path d="M291.36,206.08c8.9,8.838,17.799,17.692,26.699,26.545-4.103,9.393-9.054,18.324-14.761,26.73h-62.067c-1.712-1.681-3.424-3.362-5.136-5.044-3.486-3.44-6.987-6.879-10.473-10.303-2.314-2.283-4.843-4.381-7.141-6.679-6.123-6.093-6.663-12.509-1.311-19.249,2.946-3.717,6.386-7.018,9.301-10.18-5.938-6.031-11.522-11.692-17.414-17.676-4.674,5.63-9.578,11.398-14.344,17.275-9.44,11.63-18.864,23.275-28.288,34.905-2.298,2.853-4.612,5.692-6.91,8.545-2.267,2.807-4.55,5.614-6.818,8.406H86.882c-4.411,0-7.99,3.578-7.99,7.99v31.836c0,4.411,3.578,7.99,7.99,7.99h26.931c-1.866,2.267-3.717,4.55-5.584,6.817-1.496,1.851-3.008,3.702-4.519,5.537-16.057-6.571-30.864-15.594-43.928-26.622-5.907-4.997-11.476-10.396-16.627-16.165C16.949,247.463,1,208.81,1,166.424c0-45.887,18.694-87.409,48.864-117.378,.864-.879,1.743-1.727,2.638-2.576,5.013-4.766,10.334-9.224,15.918-13.327,.972-.709,1.959-1.419,2.946-2.113,.71-.509,1.434-1.003,2.159-1.496,.725-.509,1.45-1.003,2.19-1.465,.339-.231,.694-.447,1.049-.679,.339-.231,.694-.463,1.033-.663,.694-.447,1.404-.895,2.113-1.326,.062-.046,.123-.077,.185-.108,.571-.37,1.141-.71,1.727-1.049,.077-.046,.139-.093,.216-.123,.71-.416,1.419-.833,2.144-1.249,.648-.37,1.296-.74,1.959-1.111,4.18-2.344,8.468-4.488,12.864-6.432,.617-.278,1.249-.555,1.866-.817,.031-.031,.062-.046,.108-.046,.262-.139,.524-.247,.802-.339,1.419-.617,2.853-1.203,4.303-1.774l.91-.355c.833-.324,1.681-.648,2.545-.956,.864-.324,1.727-.632,2.591-.926,.432-.154,.879-.309,1.326-.447,1.188-.416,2.391-.802,3.594-1.172,3.933-1.234,7.943-2.329,12-3.254,.416-.108,.817-.201,1.234-.278,.679-.154,1.342-.309,2.021-.432,.386-.093,.787-.17,1.188-.247,.154-.046,.293-.077,.447-.093,.91-.185,1.82-.37,2.745-.524,.987-.185,1.974-.355,2.962-.509,.817-.139,1.62-.262,2.437-.37,1.805-.278,3.625-.509,5.445-.709,.71-.077,1.419-.154,2.144-.231,1.326-.139,2.653-.262,3.979-.355,.571-.046,1.157-.093,1.728-.108,.077-.031,.17-.031,.247-.015,.046-.031,.108-.031,.154-.015h.015c.54-.031,1.08-.062,1.604-.093,.093-.015,.185-.031,.262-.015,.802-.062,1.604-.093,2.406-.108,.154-.015,.293-.031,.432-.015,.818-.031,1.635-.046,2.452-.062,.602-.015,1.203-.031,1.805-.046h.602c.355-.015,.71-.015,1.064-.015s.71,0,1.064,.015h.602c.601,.015,1.203,.031,1.805,.046,.818,.015,1.635,.031,2.452,.062,.154-.015,.308,0,.463,.015,.709,.015,1.419,.046,2.129,.093,.139,0,.293,0,.447,.031,.848,.046,1.681,.093,2.514,.154,1.774,.108,3.532,.262,5.29,.432,.879,.093,1.758,.185,2.622,.293,.925,.093,1.835,.216,2.745,.339,.926,.108,1.835,.231,2.746,.386,.771,.123,1.542,.231,2.314,.37,.833,.139,1.666,.278,2.499,.432,.895,.139,1.789,.309,2.668,.509,.848,.154,1.681,.324,2.499,.509,1.697,.355,3.378,.756,5.059,1.172,.771,.185,1.527,.386,2.298,.586,.956,.247,1.913,.509,2.853,.771,.972,.278,1.943,.555,2.9,.848,.617,.185,1.249,.386,1.851,.571,.987,.308,1.959,.617,2.931,.956,.632,.201,1.265,.416,1.897,.648,.818,.278,1.635,.571,2.437,.879,1.249,.463,2.514,.941,3.748,1.434,1.172,.463,2.329,.925,3.486,1.419,.37,.154,.74,.309,1.08,.463,.756,.324,1.512,.663,2.267,1.003,.509,.216,1.018,.447,1.512,.679,.926,.416,1.835,.848,2.746,1.296,.231,.108,.432,.2,.648,.324,1.003,.478,1.99,.987,2.977,1.496,1.542,.771,3.054,1.589,4.566,2.437,.679,.37,1.357,.756,2.036,1.157q.015-.015,.031,0c.046,.015,.077,.046,.123,.077,2.221,1.265,4.396,2.591,6.555,3.964,.586,.37,1.141,.74,1.712,1.111,.663,.416,1.311,.848,1.959,1.311,.663,.432,1.311,.895,1.959,1.342,1.003,.694,1.99,1.404,2.961,2.113,.386,.262,.771,.555,1.157,.848,.586,.447,1.172,.879,1.758,1.326,1.28,.972,2.545,1.959,3.794,2.992,.571,.447,1.126,.91,1.681,1.373,1.064,.879,2.113,1.774,3.146,2.699,.355,.293,.725,.617,1.08,.956,1.018,.91,2.036,1.835,3.039,2.776-1.758,1.681-3.517,3.362-5.275,5.028-1.542,1.465-2.776,2.9-3.686,4.303-3.285,5.059-2.514,9.887,2.699,15.424,5.938,6.339,12.247,12.355,18.71,18.17,5.584,5.028,11.676,4.35,17.769-1.45,.416-.401,.833-.802,1.249-1.203,8.391,15.023,14.483,31.496,17.846,48.926-9.578,7.141-21.039,12.247-34.365,15.27-.031,.015-.077,.015-.108,.031-11.707,2.653-23.013-.478-33.794-4.951-4.057-1.666-6.524-1.049-9.532,1.974-.925,.925-1.851,1.851-2.792,2.776-5.661,5.568-11.491,10.982-17.306,16.411-1.08,1.003-2.159,2.021-3.239,3.023-1.28,1.203-2.792,2.144-3.841,2.946,6.632,6.956,12.602,13.203,19.003,19.928,1.789-1.774,3.501-3.393,5.136-5.028,.54-.555,1.08-1.095,1.604-1.65,6.725-7.033,13.99-7.157,20.946-.247,6.941,6.895,13.866,13.789,20.807,20.684Z" fill="none" stroke="#2fadfc" stroke-miterlimit="10" stroke-width="2"/><path d="M113.812,307.17c-1.866,2.267-3.717,4.55-5.584,6.817-1.496,1.851-3.008,3.702-4.519,5.537-16.057-6.571-30.864-15.594-43.928-26.622,4.519-4.057,9.27-7.866,14.221-11.414,1.604-1.157,3.239-2.267,4.889-3.362v21.054c0,4.411,3.578,7.99,7.99,7.99h26.931Z" fill="none" stroke="#2fadfc" stroke-miterlimit="10" stroke-width="2"/><path d="M159.514,250.949c-2.267,2.807-4.55,5.614-6.818,8.406h-35.661c13.465-4.581,27.717-7.465,42.478-8.406Z" fill="none" stroke="#2fadfc" stroke-miterlimit="10" stroke-width="2"/><path d="M279.53,45.715c-1.758,1.681-3.517,3.362-5.275,5.028-1.542,1.465-2.776,2.9-3.686,4.303-1.928,1.558-3.887,3.085-5.892,4.566-9.054,6.694-18.787,12.478-29.121,17.229-7.003,3.224-14.267,5.969-21.748,8.19-15.008,4.504-30.91,6.91-47.383,6.91-10.967,0-21.671-1.064-32.036-3.1-12.987-2.56-25.404-6.617-37.095-12-.555-.247-1.095-.509-1.65-.787-9.717-4.581-18.895-10.103-27.47-16.442-.416-.309-.833-.617-1.249-.941h-.015c-5.028-3.794-9.841-7.866-14.406-12.201,5.013-4.766,10.334-9.224,15.918-13.327,.972-.709,1.959-1.419,2.946-2.113,.71-.509,1.434-1.003,2.159-1.496,.725-.509,1.45-1.003,2.19-1.465,.339-.231,.694-.447,1.049-.679,.339-.231,.694-.463,1.033-.663,.694-.447,1.404-.895,2.113-1.326,.062-.046,.123-.077,.185-.108,.571-.37,1.141-.71,1.727-1.049,.077-.046,.139-.093,.216-.123,.71-.416,1.419-.833,2.144-1.249,.648-.37,1.296-.74,1.959-1.111,4.18-2.344,8.468-4.488,12.864-6.432,.617-.278,1.249-.555,1.866-.817,.031-.031,.062-.046,.108-.046,.262-.139,.524-.247,.802-.339,1.419-.617,2.853-1.203,4.303-1.774l.91-.355c.833-.324,1.681-.648,2.545-.956,.864-.324,1.727-.632,2.591-.926,.432-.154,.879-.309,1.326-.447,1.188-.416,2.391-.802,3.594-1.172,3.933-1.234,7.943-2.329,12-3.254,.416-.108,.817-.201,1.234-.278,.679-.154,1.342-.309,2.021-.432,.386-.093,.787-.17,1.188-.247,.154-.046,.293-.077,.447-.093,.91-.185,1.82-.37,2.745-.524,.987-.185,1.974-.355,2.962-.509,.817-.139,1.62-.262,2.437-.37,1.805-.278,3.625-.509,5.445-.709,.71-.077,1.419-.154,2.144-.231,1.326-.139,2.653-.262,3.979-.355,.571-.046,1.157-.093,1.728-.108,.077-.031,.17-.031,.247-.015,.046-.031,.108-.031,.154-.015h.015c.54-.031,1.08-.062,1.604-.093,.093-.015,.185-.031,.262-.015,.802-.062,1.604-.093,2.406-.108,.154-.015,.293-.031,.432-.015,.818-.031,1.635-.046,2.452-.062,.602-.015,1.203-.031,1.805-.046h.602c.355-.015,.71-.015,1.064-.015s.71,0,1.064,.015h.602c.601,.015,1.203,.031,1.805,.046,.818,.015,1.635,.031,2.452,.062,.154-.015,.308,0,.463,.015,.709,.015,1.419,.046,2.129,.093,.139,0,.293,0,.447,.031,.848,.046,1.681,.093,2.514,.154,1.774,.093,3.532,.247,5.29,.432,.879,.093,1.758,.185,2.622,.293,.925,.093,1.835,.216,2.745,.339,.926,.108,1.835,.231,2.746,.386,.771,.123,1.542,.231,2.314,.37,.833,.139,1.666,.278,2.499,.432,.895,.139,1.789,.309,2.668,.509,.848,.154,1.681,.324,2.499,.509,1.697,.355,3.378,.756,5.059,1.172,.771,.185,1.527,.386,2.298,.586,.956,.247,1.913,.509,2.853,.771,.972,.278,1.943,.555,2.9,.848,.617,.185,1.249,.386,1.851,.571,.987,.308,1.959,.617,2.931,.956,.632,.201,1.265,.416,1.897,.648,.818,.278,1.635,.571,2.437,.879,1.265,.447,2.514,.925,3.748,1.434,1.172,.463,2.329,.925,3.486,1.419,.37,.154,.74,.309,1.08,.463,.756,.324,1.512,.663,2.267,1.003,.509,.216,1.018,.447,1.512,.679,.926,.416,1.835,.848,2.746,1.296,.231,.108,.432,.2,.648,.324,1.003,.478,1.99,.987,2.977,1.496,1.542,.771,3.054,1.589,4.566,2.437,.679,.37,1.357,.756,2.036,1.157q.015-.015,.031,0c.046,.015,.077,.046,.123,.077,2.221,1.265,4.396,2.591,6.555,3.964,.586,.37,1.141,.74,1.712,1.111,.663,.416,1.311,.848,1.959,1.311,.663,.432,1.311,.895,1.959,1.342,1.003,.694,1.99,1.404,2.961,2.113,.386,.262,.771,.555,1.157,.848,.586,.447,1.172,.879,1.758,1.326,1.28,.972,2.545,1.959,3.794,2.992,.571,.447,1.126,.91,1.681,1.373,1.064,.879,2.113,1.774,3.146,2.699,.355,.293,.725,.617,1.08,.956,1.018,.91,2.036,1.835,3.039,2.776Z" fill="none" stroke="#2fadfc" stroke-miterlimit="10" stroke-width="2"/><path d="M113.812,307.17c-1.866,2.267-3.717,4.55-5.584,6.817-3.224-2.098-6.37-4.381-9.44-6.817h15.023Z" fill="none" stroke="#2fadfc" stroke-miterlimit="10" stroke-width="2"/><path d="M227.704,169.447c-1.28,1.203-2.792,2.144-3.841,2.946,6.632,6.956,12.602,13.203,19.003,19.928,1.789-1.774,3.501-3.393,5.136-5.028,.54-.555,1.08-1.095,1.604-1.65,6.725-7.033,13.99-7.157,20.946-.247,6.941,6.895,13.866,13.789,20.807,20.684-3.686,19.327-10.026,37.296-18.494,53.275h-31.635c-1.712-1.681-3.424-3.362-5.136-5.044-3.486-3.44-6.987-6.879-10.473-10.303-2.314-2.283-4.843-4.381-7.141-6.679-6.123-6.093-6.663-12.509-1.311-19.249,2.946-3.717,6.386-7.018,9.301-10.18-5.938-6.031-11.522-11.692-17.414-17.676-4.674,5.63-9.578,11.398-14.344,17.275-9.44,11.63-18.864,23.275-28.288,34.905-2.298,2.853-4.612,5.692-6.91,8.545-2.267,2.807-4.55,5.614-6.818,8.406H86.882c-4.411,0-7.99,3.578-7.99,7.99v20.283c-1.681-1.99-3.301-4.041-4.889-6.139-4.92-6.54-9.44-13.589-13.465-21.1-14.375-26.684-22.781-59.059-22.781-93.964,0-40.704,11.445-77.985,30.416-106.812,.185-.293,.386-.571,.586-.864,6.494-9.748,13.866-18.509,21.949-26.082C111.082,13.571,135.977,1.987,162.954,1.062c.602-.015,1.203-.031,1.805-.046h.602c.355-.015,.71-.015,1.064-.015s.71,0,1.064,.015h.602c.601,.015,1.203,.031,1.805,.046,25.851,.879,49.805,11.553,69.671,29.244,9.347,8.329,17.784,18.185,25.111,29.306,16.411,24.941,27.193,56.221,29.8,90.571-.031,.015-.077,.015-.108,.031-11.707,2.653-23.013-.478-33.794-4.951-4.057-1.666-6.524-1.049-9.532,1.974-.925,.925-1.851,1.851-2.792,2.776-5.661,5.568-11.491,10.982-17.306,16.411-1.08,1.003-2.159,2.021-3.239,3.023Z" fill="none" stroke="#2fadfc" stroke-miterlimit="10" stroke-width="2"/><path d="M242.866,192.321c1.789-1.774,3.501-3.393,5.136-5.028-1.527,24.386-5.692,47.121-11.908,67.018-3.486-3.44-6.987-6.879-10.473-10.303-2.314-2.283-4.843-4.381-7.141-6.679-6.123-6.093-6.663-12.509-1.311-19.249,2.946-3.717,6.386-7.018,9.301-10.18-5.938-6.031-11.522-11.692-17.414-17.676-4.674,5.63-9.578,11.398-14.344,17.275-9.44,11.63-18.864,23.275-28.288,34.905-2.298,2.853-4.612,5.692-6.91,8.545-2.267,2.807-4.55,5.614-6.818,8.406h-54.293c-2.807-8.252-5.229-17.059-7.249-26.283-4.473-20.391-6.956-42.941-6.956-66.648,0-32.73,4.735-63.255,12.895-88.936,.062-.216,.139-.432,.201-.648,2.005-6.247,4.211-12.216,6.617-17.846C118.763,23.997,140.774,1.632,165.36,1.015c.355-.015,.71-.015,1.064-.015s.71,0,1.064,.015c22.041,.555,42,18.571,56.607,47.491,4.303,8.545,8.159,18.046,11.46,28.334,6.895,21.486,11.383,46.396,12.694,73.172-5.661,5.568-11.491,10.982-17.306,16.411-1.08,1.003-2.159,2.021-3.239,3.023-1.28,1.203-2.792,2.144-3.841,2.946,6.632,6.956,12.602,13.203,19.003,19.928Z" fill="none" stroke="#2fadfc" stroke-miterlimit="10" stroke-width="2"/><polyline points="230.944 166.424 166.47 166.424 166.424 166.424 84.198 166.424 37.756 166.424 1 166.424" fill="none" stroke="#2fadfc" stroke-miterlimit="10" stroke-width="2"/><polyline points="166.424 242.404 166.424 166.47 166.424 166.424 166.424 145.879 166.424 120.291 166.424 91.941 166.424 1" fill="none" stroke="#2fadfc" stroke-miterlimit="10" stroke-width="2"/></g><path d="M227.704,169.447c-1.28,1.203-2.792,2.144-3.841,2.946,6.632,6.956,12.602,13.203,19.003,19.928,1.789-1.774,3.501-3.393,5.136-5.028,.54-.555,1.08-1.095,1.604-1.65,6.725-7.033,13.99-7.157,20.946-.247,6.941,6.895,13.866,13.789,20.807,20.684,8.9,8.838,17.799,17.692,26.699,26.545,8.961,8.9,17.923,17.815,26.9,26.73h-103.728c-1.712-1.681-3.424-3.362-5.136-5.044-3.486-3.44-6.987-6.879-10.473-10.303-2.314-2.283-4.843-4.381-7.141-6.679-6.123-6.093-6.663-12.509-1.311-19.249,2.946-3.717,6.386-7.018,9.301-10.18-5.938-6.031-11.522-11.692-17.414-17.676-4.674,5.63-9.578,11.398-14.344,17.275-9.44,11.63-18.864,23.275-28.288,34.905-2.298,2.853-4.612,5.692-6.91,8.545-2.267,2.807-4.55,5.614-6.818,8.406H86.882c-4.411,0-7.99,3.578-7.99,7.99v31.836c0,4.411,3.578,7.99,7.99,7.99h26.931c-1.866,2.267-3.717,4.55-5.584,6.817-1.496,1.851-3.008,3.702-4.519,5.537-.37,.447-.74,.879-1.095,1.326-5.83,7.111-12.602,13.589-19.573,19.619-17.599,15.239-44.483,10.997-56.792-8.607-5.8-9.224-7.203-31.203,2.452-40.828,4.797-4.781,9.594-9.578,14.452-14.298,5.692-5.568,11.46-11.044,17.383-16.35,.154-.139,.324-.293,.478-.432,10.026-8.977,20.082-17.938,30.139-26.884,25.033-22.273,50.144-44.452,75.27-66.602,.015-.015,.031-.031,.046-.046,2.406-2.129,4.797-4.242,7.203-6.355,2.776-2.437,2.977-4.149,.571-6.524-2.607-2.56-5.213-5.121-7.82-7.666-5.26-5.152-10.519-10.288-15.763-15.47-17.861-17.63-35.738-35.26-53.568-52.92-.478-.478-.972-.956-1.45-1.434-5.167-5.121-10.334-10.242-15.486-15.362-2.005-1.99-3.686-2.699-6.663-2.252-1.604,.231-3.193,.355-4.735,.309-.617,0-1.218-.031-1.835-.077h-.015c-5.167-.478-9.902-2.56-13.99-6.648-1.003-1.003-2.021-1.99-3.054-2.977-3.316-3.162-6.756-6.278-10.38-9.671,10.211-9.902,20.298-19.681,30.771-29.846,4.72,4.535,9.501,8.792,13.928,13.342,.941,.956,1.866,1.943,2.776,2.946,1.866,2.051,3.116,4.365,3.748,6.848,.74,2.9,.632,6.015-.339,9.193-.71,2.267-.247,3.64,1.45,5.29,4.041,3.949,8.067,7.882,12.092,11.846,10.165,9.933,20.329,19.882,30.478,29.846,10.689,10.458,21.363,20.946,32.036,31.45,7.08,6.941,14.159,13.897,21.239,20.869,2.36,2.314,4.01,2.56,6.386,.093,8.668-9.039,17.429-17.969,26.267-26.823,1.866-1.851,1.758-3.316,.91-5.661-2.56-7.003-5.105-14.036-6.895-21.255-.201-.833-.386-1.666-.524-2.483-1.805-9.872,.293-19.373,5.229-28.242,1.589-2.853,3.285-5.63,5.059-8.283,4.519-6.756,9.656-12.864,15.47-18.201,2.884-2.668,5.938-5.121,9.162-7.404,5.614-3.933,11.769-7.265,18.509-9.949,15.594-6.216,31.604-6.879,48.231-2.021-1.018,1.141-1.758,2.051-2.607,2.853-11.105,10.658-22.18,21.332-33.332,31.928-1.758,1.681-3.517,3.362-5.275,5.028-1.542,1.465-2.776,2.9-3.686,4.303-3.285,5.059-2.514,9.887,2.699,15.424,5.938,6.339,12.247,12.355,18.71,18.17,5.584,5.028,11.676,4.35,17.769-1.45,.416-.401,.833-.802,1.249-1.203,8.73-8.314,17.414-16.72,26.144-25.049,5.584-5.337,11.213-10.612,17.167-16.226,6.787,15.193,8.807,30.463,4.134,45.979-5.738,19.049-15.671,33.81-29.599,44.221-9.578,7.141-21.039,12.247-34.365,15.27-.031,.015-.077,.015-.108,.031-11.707,2.653-23.013-.478-33.794-4.951-4.057-1.666-6.524-1.049-9.532,1.974-.925,.925-1.851,1.851-2.792,2.776-5.661,5.568-11.491,10.982-17.306,16.411-1.08,1.003-2.159,2.021-3.239,3.023Z" fill="#cb6843" filter="url(#drop-shadow-2)"/><path d="M379.74,313.91c-10.781,9.979-21.548,19.959-32.391,29.877-7.064,6.478-13.82,6.308-20.761-.509-12.247-12.031-24.494-24.062-36.725-36.108h63.301c4.411,0,7.99-3.578,7.99-7.99v-23.722c3.362,3.347,6.74,6.694,10.103,10.041,3.177,3.146,6.632,6.062,9.578,9.424,5.044,5.753,4.473,13.82-1.095,18.987Z" fill="#cb6843" filter="url(#drop-shadow-3)"/><g filter="url(#drop-shadow-5)"><path d="M102.509,274.46h-11.67v6.398h10.318v5.947h-10.318v6.939h11.67v6.173h-19.375v-31.632h19.375v6.174Z" fill="#2fadfc"/><path d="M107.058,280.904h19.826v6.398h-19.826v-6.398Z" fill="#2fadfc"/><path d="M153.332,294.331h-11.806l-1.893,5.587h-8.065l11.445-31.632h8.922l11.445,31.632h-8.156l-1.893-5.587Zm-5.902-17.528l-3.875,11.58h7.795l-3.92-11.58Z" fill="#2fadfc"/><path d="M179.78,268.286c7.75,0,11.625,4.461,11.625,9.958,0,3.966-2.162,7.705-7.029,9.147l7.3,12.526h-8.696l-6.578-11.94h-1.848v11.94h-7.705v-31.632h12.932Zm-.45,6.398h-4.776v7.841h4.776c2.884,0,4.235-1.487,4.235-3.966,0-2.343-1.352-3.875-4.235-3.875Z" fill="#2fadfc"/><path d="M194.512,268.286h24.468v6.174h-8.381v25.458h-7.705v-25.458h-8.382v-6.174Z" fill="#2fadfc"/><path d="M222.853,268.286h7.705v31.632h-7.705v-31.632Z" fill="#2fadfc"/><path d="M247.589,300.234c-6.804,0-12.12-3.38-12.346-9.778h8.201c.225,2.434,1.757,3.605,3.92,3.605,2.253,0,3.694-1.127,3.694-2.975,0-5.857-15.815-2.703-15.726-13.923,0-5.993,4.912-9.327,11.535-9.327,6.895,0,11.535,3.425,11.851,9.462h-8.336c-.135-2.027-1.577-3.244-3.649-3.289-1.848-.045-3.244,.901-3.244,2.884,0,5.497,15.635,3.02,15.635,13.608,0,5.316-4.145,9.732-11.535,9.732Z" fill="#2fadfc"/><path d="M283.544,294.331h-11.806l-1.893,5.587h-8.065l11.445-31.632h8.922l11.445,31.632h-8.156l-1.893-5.587Zm-5.902-17.528l-3.875,11.58h7.795l-3.92-11.58Z" fill="#2fadfc"/><path d="M325.358,268.286v31.632h-7.705l-12.887-19.511v19.511h-7.705v-31.632h7.705l12.887,19.601v-19.601h7.705Z" fill="#2fadfc"/><path d="M342.388,300.234c-6.804,0-12.12-3.38-12.346-9.778h8.201c.225,2.434,1.757,3.605,3.92,3.605,2.253,0,3.694-1.127,3.694-2.975,0-5.857-15.815-2.703-15.726-13.923,0-5.993,4.912-9.327,11.535-9.327,6.895,0,11.535,3.425,11.851,9.462h-8.336c-.135-2.027-1.577-3.244-3.649-3.289-1.848-.045-3.244,.901-3.244,2.884,0,5.497,15.635,3.02,15.635,13.608,0,5.316-4.145,9.732-11.535,9.732Z" fill="#2fadfc"/></g></svg>